<svg version="1.1" id="Layer_1" xmlns="http://www.w3.org/2000/svg" xmlns:xlink="http://www.w3.org/1999/xlink" x="0px" y="0px"
	 width="100%" viewBox="0 0 254 68" enable-background="new 0 0 254 68" xml:space="preserve">
<path fill="#000000" opacity="1.000000" stroke="none" 
	d="
M108.000000,69.000000 
	C94.979103,69.000000 81.958214,69.000000 68.470093,68.531342 
	C68.001907,45.708454 68.000954,23.354227 68.000000,1.000000 
	C96.354225,1.000000 124.708458,1.000000 153.815582,1.294499 
	C153.677643,2.267635 152.827606,3.009419 151.889801,3.615361 
	C139.406525,11.681240 134.559219,25.256207 138.000992,39.503731 
	C140.224640,48.708679 149.863068,60.333885 162.504089,55.832428 
	C166.349701,54.463009 168.931442,54.783031 171.984055,57.202072 
	C172.861832,57.897667 175.079025,56.903072 176.682098,56.683414 
	C176.036850,55.434261 175.567581,54.042419 174.700577,52.973061 
	C173.679123,51.713211 172.313171,50.732685 171.256699,49.776028 
	C172.259033,48.859108 173.249390,48.222065 173.882339,47.331112 
	C178.486404,40.850601 180.589600,33.783550 180.110748,25.668636 
	C179.526306,15.764132 175.761063,8.187714 166.901947,3.354161 
	C166.083466,2.907593 165.625412,1.800428 165.000000,1.000001 
	C194.955902,1.000000 224.911804,1.000000 254.933853,1.000000 
	C254.933853,23.589092 254.933853,46.178417 254.933853,69.000000 
	C208.646027,69.000000 162.291672,69.000000 115.467987,68.627502 
	C114.331345,67.004738 113.716492,65.722977 112.987823,64.509552 
	C109.456177,58.628475 105.893997,52.765739 101.713737,45.857140 
	C107.148659,45.857140 110.896851,45.857140 114.332047,45.857140 
	C116.635994,50.109112 118.688698,54.556725 121.411339,58.547260 
	C122.305984,59.858521 124.936394,59.985512 126.773064,60.654049 
	C126.561630,58.985600 126.778656,57.096756 126.055740,55.691406 
	C124.140640,51.968384 121.819077,48.454445 119.371017,44.377300 
	C121.502380,43.530098 123.042244,42.918011 124.214149,42.452187 
	C126.580887,45.962162 128.674377,49.250927 130.957886,52.401989 
	C133.265762,55.586689 135.291565,54.922546 137.033875,51.940746 
	C135.886551,50.381332 134.852646,49.109619 133.964233,47.743305 
	C131.403931,43.805737 126.791031,39.826550 134.264343,36.002460 
	C134.868347,35.693398 134.998535,33.424244 134.534424,32.456554 
	C134.263535,31.891754 132.288849,31.771544 131.233948,32.044209 
	C129.718124,32.436016 128.341995,33.368263 127.057968,33.685463 
	C127.472923,31.904415 128.181946,30.401890 127.882095,29.138872 
	C127.537750,27.688421 126.299767,26.450130 125.449951,25.119684 
	C124.301735,26.454002 122.439034,27.667528 122.187813,29.153490 
	C121.880196,30.973055 122.922073,33.020767 123.378418,34.961113 
	C124.871201,34.559753 125.935844,34.273506 126.899490,34.329498 
	C124.038544,36.105568 121.278595,37.539406 118.152740,39.163338 
	C116.434540,30.516293 116.418701,22.767653 118.373848,14.953477 
	C118.731148,13.525480 117.529449,11.707417 117.047409,10.069415 
	C115.703232,11.246042 113.570068,12.190652 113.144615,13.637439 
	C110.631775,22.182686 110.185638,30.878782 112.858047,40.206230 
	C108.420303,40.206230 104.356796,40.206230 99.784882,40.206230 
	C99.498802,34.203697 98.903618,28.957754 99.097511,23.741137 
	C99.290382,18.552252 100.425034,13.403917 100.811203,8.212843 
	C100.910065,6.883794 99.741974,5.460496 99.155960,4.080501 
	C97.778458,5.216964 95.372047,6.212132 95.193382,7.513222 
	C94.169662,14.967981 93.531990,22.486794 93.079903,30.002911 
	C92.925583,32.568336 93.688507,35.188934 93.963104,37.261703 
	C91.198624,37.668102 88.234123,37.289158 87.571037,38.349457 
	C85.302910,41.976295 89.188995,43.298916 91.197472,43.434017 
	C96.503716,43.790962 97.446037,47.621643 99.016792,51.308468 
	C100.221519,54.136150 101.700111,56.849178 103.100349,59.591011 
	C104.708565,62.740105 106.364677,65.864746 108.000000,69.000000 
M123.604553,23.068783 
	C125.301460,22.926561 126.998375,22.784340 128.695282,22.642117 
	C128.366852,21.168123 128.425812,19.383333 127.577736,18.326244 
	C126.983696,17.585808 124.183174,17.401855 124.038071,17.723284 
	C123.379570,19.181940 123.313881,20.908211 123.604553,23.068783 
z"/>
<path fill="#F8F9FB" opacity="1.000000" stroke="none" 
	d="
M67.531342,1.000000 
	C68.000954,23.354227 68.001907,45.708454 68.001434,68.531342 
	C45.715130,69.000000 23.430262,69.000000 1.000000,69.000000 
	C1.000000,57.740063 1.000000,46.479618 1.000000,35.219173 
	C1.000000,23.910433 1.000000,12.601693 1.000000,1.000000 
	C23.020029,1.000000 45.041355,1.000000 67.531342,1.000000 
M22.855873,30.170179 
	C22.855873,30.170179 22.730953,30.220955 23.059534,30.874971 
	C25.170256,31.743858 27.280977,32.612747 29.391697,33.481632 
	C29.704279,32.946198 30.016859,32.410759 30.329439,31.875322 
	C29.555990,31.009197 28.782539,30.143070 27.467400,28.872824 
	C27.342215,27.998789 27.217031,27.124754 27.757906,25.847794 
	C29.850414,21.486563 29.307775,17.456678 26.099352,13.967053 
	C26.099352,13.967053 26.271616,13.771063 26.052710,13.159897 
	C24.703823,12.163057 23.354937,11.166219 21.311132,9.715998 
	C14.747251,7.824459 10.069063,9.034743 6.595318,13.523094 
	C3.455627,17.579819 3.181695,23.009476 5.890307,27.497147 
	C8.763312,32.257187 13.133820,34.081398 19.626175,33.058895 
	C20.680153,32.134850 21.734129,31.210804 22.855873,30.170179 
M48.452412,14.988575 
	C48.691353,14.958994 48.930298,14.929414 49.952408,14.916115 
	C50.995518,14.937810 52.038624,14.959505 53.173542,15.916080 
	C53.173542,21.529072 53.173542,27.142063 53.173542,34.291027 
	C55.865387,32.833122 57.516151,31.939066 59.465256,30.290739 
	C59.465256,25.362518 59.465256,20.434298 59.465256,15.386305 
	C61.240761,15.002681 62.731140,14.680663 64.044304,14.396935 
	C65.026314,10.007975 63.252121,8.624296 59.363472,8.807902 
	C54.583130,9.033609 49.788139,8.949074 44.643093,8.473976 
	C41.686871,9.538980 41.280399,11.428568 42.820766,14.891113 
	C41.974674,19.579449 45.086521,25.200531 38.644226,29.689785 
	C37.724903,27.119276 36.599373,25.088490 36.326187,22.948877 
	C35.907787,19.671936 36.076706,16.320004 36.193771,12.168917 
	C35.997913,7.925484 33.059540,8.933149 30.087231,9.037313 
	C30.087231,14.812394 29.974007,20.435701 30.174294,26.047817 
	C30.219124,27.303936 31.362759,28.520840 32.654411,30.175968 
	C36.416958,34.683441 43.186176,34.489140 47.706867,29.529615 
	C47.716358,24.711529 47.725853,19.893440 48.452412,14.988575 
z"/>
<path fill="#F37021" opacity="1.000000" stroke="none" 
	d="
M126.906242,34.069824 
	C128.341995,33.368263 129.718124,32.436016 131.233948,32.044209 
	C132.288849,31.771544 134.263535,31.891754 134.534424,32.456554 
	C134.998535,33.424244 134.868347,35.693398 134.264343,36.002460 
	C126.791031,39.826550 131.403931,43.805737 133.964233,47.743305 
	C134.852646,49.109619 135.886551,50.381332 137.033875,51.940746 
	C135.291565,54.922546 133.265762,55.586689 130.957886,52.401989 
	C128.674377,49.250927 126.580887,45.962162 124.214149,42.452187 
	C123.042244,42.918011 121.502380,43.530098 119.371017,44.377300 
	C121.819077,48.454445 124.140640,51.968384 126.055740,55.691406 
	C126.778656,57.096756 126.561630,58.985600 126.773064,60.654049 
	C124.936394,59.985512 122.305984,59.858521 121.411339,58.547260 
	C118.688698,54.556725 116.635994,50.109112 114.332047,45.857140 
	C110.896851,45.857140 107.148659,45.857140 101.713737,45.857140 
	C105.893997,52.765739 109.456177,58.628475 112.987823,64.509552 
	C113.716492,65.722977 114.331345,67.004738 114.999329,68.627502 
	C112.958336,69.000000 110.916664,69.000000 108.437500,69.000000 
	C106.364677,65.864746 104.708565,62.740105 103.100349,59.591011 
	C101.700111,56.849178 100.221519,54.136150 99.016792,51.308468 
	C97.446037,47.621643 96.503716,43.790962 91.197472,43.434017 
	C89.188995,43.298916 85.302910,41.976295 87.571037,38.349457 
	C88.234123,37.289158 91.198624,37.668102 93.963104,37.261703 
	C93.688507,35.188934 92.925583,32.568336 93.079903,30.002911 
	C93.531990,22.486794 94.169662,14.967981 95.193382,7.513222 
	C95.372047,6.212132 97.778458,5.216964 99.155960,4.080501 
	C99.741974,5.460496 100.910065,6.883794 100.811203,8.212843 
	C100.425034,13.403917 99.290382,18.552252 99.097511,23.741137 
	C98.903618,28.957754 99.498802,34.203697 99.784882,40.206230 
	C104.356796,40.206230 108.420303,40.206230 112.858047,40.206230 
	C110.185638,30.878782 110.631775,22.182686 113.144615,13.637439 
	C113.570068,12.190652 115.703232,11.246042 117.047409,10.069415 
	C117.529449,11.707417 118.731148,13.525480 118.373848,14.953477 
	C116.418701,22.767653 116.434540,30.516293 118.152740,39.163338 
	C121.278595,37.539406 124.038544,36.105568 126.877213,34.351601 
	C126.955940,34.031471 126.906242,34.069824 126.906242,34.069824 
z"/>
<path fill="#F37021" opacity="1.000000" stroke="none" 
	d="
M164.541931,1.000001 
	C165.625412,1.800428 166.083466,2.907593 166.901947,3.354161 
	C175.761063,8.187714 179.526306,15.764132 180.110748,25.668636 
	C180.589600,33.783550 178.486404,40.850601 173.882339,47.331112 
	C173.249390,48.222065 172.259033,48.859108 171.256699,49.776028 
	C172.313171,50.732685 173.679123,51.713211 174.700577,52.973061 
	C175.567581,54.042419 176.036850,55.434261 176.682098,56.683414 
	C175.079025,56.903072 172.861832,57.897667 171.984055,57.202072 
	C168.931442,54.783031 166.349701,54.463009 162.504089,55.832428 
	C149.863068,60.333885 140.224640,48.708679 138.000992,39.503731 
	C134.559219,25.256207 139.406525,11.681240 151.889801,3.615361 
	C152.827606,3.009419 153.677643,2.267635 154.284241,1.294499 
	C157.361282,1.000000 160.722580,1.000000 164.541931,1.000001 
M163.083130,49.936066 
	C162.648880,47.770638 162.610596,45.416931 161.690704,43.482430 
	C160.184998,40.315948 161.300613,38.538967 164.841187,36.504734 
	C166.092087,39.676758 167.249512,42.611744 168.413864,45.564308 
	C174.481964,37.318058 176.055664,30.156498 173.971115,20.341421 
	C172.608398,13.925125 166.812042,7.999178 160.971130,7.050826 
	C156.202011,6.276492 149.121689,10.944062 146.112671,16.565645 
	C142.518585,23.280334 141.601944,30.469618 143.141983,37.699169 
	C145.254150,47.614616 152.984573,53.720097 163.083130,49.936066 
z"/>
<path fill="#F37021" opacity="1.000000" stroke="none" 
	d="
M126.978210,34.009369 
	C125.935844,34.273506 124.871201,34.559753 123.378418,34.961113 
	C122.922073,33.020767 121.880196,30.973055 122.187813,29.153490 
	C122.439034,27.667528 124.301735,26.454002 125.449951,25.119684 
	C126.299767,26.450130 127.537750,27.688421 127.882095,29.138872 
	C128.181946,30.401890 127.472923,31.904415 127.057968,33.685467 
	C126.906242,34.069824 126.955940,34.031471 126.978210,34.009369 
z"/>
<path fill="#F37021" opacity="1.000000" stroke="none" 
	d="
M123.319702,22.803478 
	C123.313881,20.908211 123.379570,19.181940 124.038071,17.723284 
	C124.183174,17.401855 126.983696,17.585808 127.577736,18.326244 
	C128.425812,19.383333 128.366852,21.168123 128.695282,22.642117 
	C126.998375,22.784340 125.301460,22.926561 123.319702,22.803478 
z"/>
<path fill="#29497C" opacity="1.000000" stroke="none" 
	d="
M19.006800,32.971863 
	C13.133820,34.081398 8.763312,32.257187 5.890307,27.497147 
	C3.181695,23.009476 3.455627,17.579819 6.595318,13.523094 
	C10.069063,9.034743 14.747251,7.824459 21.703163,10.283602 
	C23.487335,11.824492 24.879477,12.797777 26.271616,13.771063 
	C26.271616,13.771063 26.099352,13.967053 26.099663,14.291157 
	C26.430597,18.493746 26.761223,22.372232 27.091848,26.250719 
	C27.217031,27.124754 27.342215,27.998789 27.655226,29.401646 
	C26.139019,30.027296 24.434986,30.124125 22.730953,30.220955 
	C22.730953,30.220955 22.855873,30.170179 22.862862,29.856453 
	C21.500919,28.388659 20.131987,27.234591 18.552364,26.019146 
	C18.075155,25.783062 17.935493,25.536497 17.982929,24.882492 
	C19.019131,23.725727 19.995094,22.904549 21.356434,22.200893 
	C22.102552,22.086599 22.770311,21.864901 22.778336,21.621458 
	C22.915520,17.458771 20.552080,15.007276 16.750330,14.494781 
	C13.405572,14.043891 10.689379,15.559426 10.109597,19.354164 
	C9.533352,23.125759 10.415661,26.342733 14.308583,27.804495 
	C16.067841,28.465084 18.050793,28.529928 19.943100,29.223686 
	C19.638227,30.712168 19.322514,31.842014 19.006800,32.971863 
z"/>
<path fill="#29487B" opacity="1.000000" stroke="none" 
	d="
M35.996338,12.999901 
	C36.076706,16.320004 35.907787,19.671936 36.326187,22.948877 
	C36.599373,25.088490 37.724903,27.119276 38.644226,29.689785 
	C45.086521,25.200531 41.974674,19.579449 43.137878,14.384112 
	C44.305336,14.245530 45.155685,14.613948 46.058746,15.396611 
	C46.401890,20.462135 46.692318,25.113415 46.982742,29.764694 
	C43.186176,34.489140 36.416958,34.683441 32.327972,29.513931 
	C32.001534,23.438257 32.001534,18.024620 32.001534,12.307423 
	C33.785267,12.616624 34.890800,12.808263 35.996338,12.999901 
z"/>
<path fill="#2C4B7D" opacity="1.000000" stroke="none" 
	d="
M53.081734,14.981199 
	C52.038624,14.959505 50.995518,14.937810 49.498489,14.572277 
	C47.696205,12.485172 46.347843,10.741906 44.999481,8.998640 
	C49.788139,8.949074 54.583130,9.033609 59.363472,8.807902 
	C63.252121,8.624296 65.026314,10.007975 64.044304,14.396935 
	C62.731140,14.680663 61.240761,15.002681 59.465256,15.386305 
	C59.465256,20.434298 59.465256,25.362518 58.883423,30.652035 
	C57.207455,29.968351 55.356533,29.042847 55.168968,27.854744 
	C54.708569,24.938484 55.209919,21.882437 54.924992,18.921047 
	C54.794163,17.561237 53.725254,16.291683 53.081734,14.981199 
z"/>
<path fill="#27477A" opacity="1.000000" stroke="none" 
	d="
M36.095055,12.584410 
	C34.890800,12.808263 33.785267,12.616624 32.001534,12.307423 
	C32.001534,18.024620 32.001534,23.438257 32.001030,29.303848 
	C31.362759,28.520840 30.219124,27.303936 30.174294,26.047817 
	C29.974007,20.435701 30.087231,14.812394 30.087231,9.037313 
	C33.059540,8.933149 35.997913,7.925484 36.095055,12.584410 
z"/>
<path fill="#11336C" opacity="1.000000" stroke="none" 
	d="
M53.127640,15.448640 
	C53.725254,16.291683 54.794163,17.561237 54.924992,18.921047 
	C55.209919,21.882437 54.708569,24.938484 55.168968,27.854744 
	C55.356533,29.042847 57.207455,29.968351 58.734253,31.029171 
	C57.516151,31.939066 55.865387,32.833122 53.173542,34.291027 
	C53.173542,27.142063 53.173542,21.529072 53.127640,15.448640 
z"/>
<path fill="#345182" opacity="1.000000" stroke="none" 
	d="
M47.344803,29.647156 
	C46.692318,25.113415 46.401890,20.462135 46.344505,15.447655 
	C46.963478,15.081421 47.349411,15.078386 47.735344,15.075353 
	C47.725853,19.893440 47.716358,24.711529 47.344803,29.647156 
z"/>
<path fill="#D1D8E3" opacity="1.000000" stroke="none" 
	d="
M48.093880,15.031963 
	C47.349411,15.078386 46.963478,15.081421 46.291790,15.033411 
	C45.155685,14.613948 44.305336,14.245530 43.161469,13.920063 
	C41.280399,11.428568 41.686871,9.538980 44.821289,8.736308 
	C46.347843,10.741906 47.696205,12.485172 49.106903,14.564137 
	C48.930298,14.929414 48.691353,14.958994 48.093880,15.031963 
z"/>
<path fill="#244378" opacity="1.000000" stroke="none" 
	d="
M27.424877,26.049255 
	C26.761223,22.372232 26.430597,18.493746 26.168018,14.180031 
	C29.307775,17.456678 29.850414,21.486563 27.424877,26.049255 
z"/>
<path fill="#203E74" opacity="1.000000" stroke="none" 
	d="
M22.895245,30.547962 
	C24.434986,30.124125 26.139019,30.027296 27.926071,29.603706 
	C28.782539,30.143070 29.555990,31.009197 30.329439,31.875322 
	C30.016859,32.410759 29.704279,32.946198 29.391697,33.481632 
	C27.280977,32.612747 25.170256,31.743858 22.895245,30.547962 
z"/>
<path fill="#203E74" opacity="1.000000" stroke="none" 
	d="
M19.316486,33.015381 
	C19.322514,31.842014 19.638227,30.712168 19.860125,28.923683 
	C19.431889,27.536873 19.097471,26.808699 18.763054,26.080523 
	C20.131987,27.234591 21.500919,28.388659 22.828979,29.914742 
	C21.734129,31.210804 20.680153,32.134850 19.316486,33.015381 
z"/>
<path fill="#244378" opacity="1.000000" stroke="none" 
	d="
M26.162163,13.465480 
	C24.879477,12.797777 23.487335,11.824492 22.050623,10.510292 
	C23.354937,11.166219 24.703823,12.163057 26.162163,13.465480 
z"/>
<path fill="#000000" opacity="1.000000" stroke="none" 
	d="
M162.672119,49.974648 
	C152.984573,53.720097 145.254150,47.614616 143.141983,37.699169 
	C141.601944,30.469618 142.518585,23.280334 146.112671,16.565645 
	C149.121689,10.944062 156.202011,6.276492 160.971130,7.050826 
	C166.812042,7.999178 172.608398,13.925125 173.971115,20.341421 
	C176.055664,30.156498 174.481964,37.318058 168.413864,45.564308 
	C167.249512,42.611744 166.092087,39.676758 164.841187,36.504734 
	C161.300613,38.538967 160.184998,40.315948 161.690704,43.482430 
	C162.610596,45.416931 162.648880,47.770638 162.672119,49.974648 
z"/>
<path fill="#F1F3F7" opacity="1.000000" stroke="none" 
	d="
M18.552364,26.019146 
	C19.097471,26.808699 19.431889,27.536873 19.849283,28.565052 
	C18.050793,28.529928 16.067841,28.465084 14.308583,27.804495 
	C10.415661,26.342733 9.533352,23.125759 10.109597,19.354164 
	C10.689379,15.559426 13.405572,14.043891 16.750330,14.494781 
	C20.552080,15.007276 22.915520,17.458771 22.778336,21.621458 
	C22.770311,21.864901 22.102552,22.086599 21.142429,21.898556 
	C18.646675,21.377300 16.750301,21.275909 13.583817,21.106609 
	C15.646314,23.061008 16.784502,24.139544 17.922689,25.218077 
	C17.935493,25.536497 18.075155,25.783062 18.552364,26.019146 
z"/>
<path fill="#203E74" opacity="1.000000" stroke="none" 
	d="
M17.982929,24.882492 
	C16.784502,24.139544 15.646314,23.061008 13.583817,21.106609 
	C16.750301,21.275909 18.646675,21.377300 20.757051,21.781031 
	C19.995094,22.904549 19.019131,23.725727 17.982929,24.882492 
z"/>
</svg>